<?xml version="1.0" standalone="no"?>
<!DOCTYPE svg PUBLIC "-//W3C//DTD SVG 20010904//EN"
 "http://www.w3.org/TR/2001/REC-SVG-20010904/DTD/svg10.dtd">
<svg version="1.0" xmlns="http://www.w3.org/2000/svg"
 width="512.000000pt" height="512.000000pt" viewBox="0 0 512.000000 512.000000"
 preserveAspectRatio="xMidYMid meet">

<g transform="translate(0.000000,512.000000) scale(0.100000,-0.100000)"
fill="#000000" stroke="none">
<path d="M2442 4909 c-156 -27 -324 -132 -416 -258 -43 -59 -1919 -3363 -1962
-3456 -190 -408 64 -895 512 -981 113 -21 3855 -21 3968 0 448 86 702 573 512
981 -44 94 -1919 3397 -1963 3457 -75 103 -197 189 -330 234 -85 28 -233 39
-321 23z m274 -328 c35 -17 82 -49 105 -73 28 -29 339 -568 986 -1708 520
-916 959 -1694 977 -1730 27 -58 31 -75 31 -155 0 -107 -20 -173 -74 -245 -48
-64 -112 -114 -181 -143 l-55 -22 -1919 -3 c-2095 -2 -1980 -5 -2081 54 -181
105 -254 334 -167 517 16 34 455 811 975 1727 627 1105 958 1679 985 1707 42
44 117 87 179 103 66 16 168 4 239 -29z"/>
<path d="M2492 3584 c-18 -9 -43 -31 -55 -48 -22 -30 -22 -38 -25 -375 l-3
-343 -88 85 c-67 65 -98 87 -125 93 -131 24 -227 -99 -167 -214 11 -20 115
-132 233 -249 311 -309 284 -309 596 1 118 116 222 228 233 248 63 122 -59
256 -187 208 -15 -6 -65 -47 -111 -92 l-83 -82 0 333 c0 367 -2 380 -63 423
-39 28 -112 34 -155 12z"/>
<path d="M1586 2284 c-125 -30 -261 -119 -334 -216 -44 -59 -587 -1011 -610
-1070 -27 -69 12 -154 85 -184 48 -21 3618 -21 3666 0 73 30 112 115 85 184
-23 59 -566 1011 -610 1070 -131 176 -388 270 -593 217 -134 -35 -248 -129
-304 -250 -70 -152 -85 -176 -132 -220 -27 -26 -80 -61 -117 -78 -61 -29 -76
-32 -162 -32 -86 0 -101 3 -162 32 -37 17 -90 52 -117 78 -47 44 -62 68 -132
220 -94 203 -328 306 -563 249z m207 -298 c48 -20 82 -63 112 -139 69 -173
193 -302 368 -382 104 -47 167 -60 292 -59 126 1 204 18 304 69 164 82 273
199 342 365 52 125 110 168 214 157 65 -7 139 -44 186 -94 20 -21 134 -209
252 -418 l216 -380 -760 -3 c-417 -1 -1101 -1 -1518 0 l-760 3 216 380 c118
209 231 397 251 418 79 82 202 118 285 83z"/>
</g>
</svg>
